<?xml version="1.0" encoding="UTF-8" standalone="no"?>
<!-- Uploaded to: SVG Repo, www.svgrepo.com, Transformed by: SVG Repo Mixer Tools -->

<svg
   version="1.1"
   id="Layer_1"
   viewBox="0 0 512.001 512.001"
   xml:space="preserve"
   width="800px"
   height="800px"
   fill="#0000000"
   sodipodi:docname="timer-back.svg"
   inkscape:version="1.3 (0e150ed6c4, 2023-07-21)"
   xmlns:inkscape="http://www.inkscape.org/namespaces/inkscape"
   xmlns:sodipodi="http://sodipodi.sourceforge.net/DTD/sodipodi-0.dtd"
   xmlns="http://www.w3.org/2000/svg"
   xmlns:svg="http://www.w3.org/2000/svg"><defs
   id="defs13" /><sodipodi:namedview
   id="namedview13"
   pagecolor="#ffffff"
   bordercolor="#000000"
   borderopacity="0.25"
   inkscape:showpageshadow="2"
   inkscape:pageopacity="0.0"
   inkscape:pagecheckerboard="0"
   inkscape:deskcolor="#d1d1d1"
   inkscape:zoom="1.01625"
   inkscape:cx="400.492"
   inkscape:cy="400"
   inkscape:window-width="1920"
   inkscape:window-height="1009"
   inkscape:window-x="-8"
   inkscape:window-y="-8"
   inkscape:window-maximized="1"
   inkscape:current-layer="Layer_1" />&#10;&#10;<g
   id="SVGRepo_bgCarrier"
   stroke-width="0" />&#10;&#10;<g
   id="SVGRepo_tracerCarrier"
   stroke-linecap="round"
   stroke-linejoin="round" />&#10;&#10;<g
   id="SVGRepo_iconCarrier"> <g
   id="g2"> <path
   style="fill:#407190;"
   d="M197.852,345.632c-11.929-7.769-28.97-2.745-38.061,11.215l-63.172,97.022 c-9.09,13.96-6.787,31.576,5.142,39.34c11.929,7.769,28.97,2.745,38.061-11.215l63.172-97.017 C212.084,371.015,209.781,353.4,197.852,345.632z"
   id="path1" /> <path
   style="fill:#407190;"
   d="M314.146,345.632c11.929-7.769,28.966-2.745,38.061,11.215l63.172,97.022 c9.09,13.96,6.787,31.576-5.142,39.34c-11.929,7.769-28.97,2.745-38.061-11.215l-63.172-97.017 C299.914,371.015,302.217,353.4,314.146,345.632z"
   id="path2" /> </g> <path
   style="fill:#CD4E38;"
   d="M292.795,49.633c0,7.395-5.992,13.387-13.387,13.387h-46.824c-7.395,0-13.387-5.992-13.387-13.387 V28.525c0-7.395,5.992-13.387,13.387-13.387h46.828c7.395,0,13.387,5.992,13.387,13.387v21.108H292.795z"
   id="path3" /> <g
   id="g4"> <rect
   x="191.324"
   y="43.284"
   style="fill:#407190;"
   width="129.362"
   height="62.726"
   id="rect3" /> <rect
   x="66.328"
   y="52.444"
   transform="matrix(-0.7071 0.7071 -0.7071 -0.7071 235.4177 119.4317)"
   style="fill:#407190;"
   width="53.291"
   height="112.056"
   id="rect4" /> </g> <path
   style="fill:#CD4E38;"
   d="M157.892,37.955C123.061,8.882,74.036,8.245,38.784,34.78c-0.212-0.242-0.416-0.484-0.646-0.718 c-5.401-5.401-14.164-5.401-19.566,0s-5.401,14.164,0,19.566c0.229,0.229,0.472,0.438,0.714,0.646 c-26.531,35.252-25.894,84.272,3.179,119.107c0.654,0.786,1.606,1.258,2.626,1.3c1.02,0.051,2.01-0.336,2.733-1.058l130.31-130.31 c0.722-0.722,1.109-1.713,1.062-2.737C159.15,39.566,158.674,38.609,157.892,37.955z"
   id="path4" /> <rect
   x="392.371"
   y="52.434"
   transform="matrix(0.7071 0.7071 -0.7071 0.7071 199.4214 -264.5218)"
   style="fill:#407190;"
   width="53.291"
   height="112.056"
   id="rect5" /> <path
   style="fill:#CD4E38;"
   d="M354.106,37.955c34.835-29.072,83.856-29.706,119.107-3.175c0.212-0.242,0.421-0.484,0.65-0.718 c5.401-5.401,14.164-5.401,19.566,0c5.401,5.401,5.401,14.164,0,19.566c-0.229,0.229-0.476,0.438-0.714,0.646 c26.527,35.252,25.894,84.272-3.179,119.107c-0.654,0.786-1.606,1.258-2.626,1.3c-1.02,0.051-2.01-0.336-2.733-1.058L353.864,43.314 c-0.722-0.722-1.109-1.713-1.062-2.737C352.848,39.566,353.32,38.609,354.106,37.955z"
   id="path5" /> <circle
   style="fill:#589BC7;"
   cx="256.005"
   cy="271.984"
   r="212.742"
   id="circle5" /> <g
   style="opacity:0.4;"
   id="g6"> <circle
   style="fill:#FBF5E2;"
   cx="256.005"
   cy="271.984"
   r="182.951"
   id="circle6" /> </g> <circle
   style="fill:#FBF5E2;"
   cx="256.005"
   cy="271.984"
   r="165.298"
   id="circle7" />      </g>&#10;&#10;</svg>
