<svg xmlns="http://www.w3.org/2000/svg" version="1.1" xmlns:xlink="http://www.w3.org/1999/xlink" xmlns:svgjs="http://svgjs.dev/svgjs" viewBox="0 0 800 800"><defs><filter id="uuunion-blur" x="-100%" y="-100%" width="400%" height="400%" color-interpolation-filters="sRGB">
        <feGaussianBlur in="SourceGraphic" stdDeviation="9 7" result="blur"></feGaussianBlur>
        <feDropShadow stdDeviation="23.384615384615387" in="blur" dx="19" dy="19" flood-color="hsl(209, 78%, 25%)" flood-opacity="0.55" x="0%" y="0%" width="100%" height="100%"></feDropShadow>
      </filter><filter id="uuunion-blur2" x="-100%" y="-100%" width="400%" height="400%" color-interpolation-filters="sRGB">
        <feGaussianBlur in="SourceGraphic" stdDeviation="9 7" result="blur"></feGaussianBlur>
        <feDropShadow stdDeviation="23.384615384615387" in="blur" dx="-19" dy="-19" flood-color="hsl(209, 78%, 25%)" flood-opacity="0.55" x="0%" y="0%" width="100%" height="100%"></feDropShadow>
      </filter><linearGradient gradientTransform="rotate(0, 0.5, 0.5)" x1="50%" y1="0%" x2="50%" y2="100%" id="uuunion-grad"><stop stop-color="hsl(205, 83%, 38%)" offset="10%"></stop><stop stop-color="hsl(209, 78%, 25%)" offset="90%"></stop></linearGradient><linearGradient gradientTransform="rotate(131, 0.5, 0.5)" x1="50%" y1="0%" x2="50%" y2="100%" id="uuunion-grad2"><stop stop-color="hsl(205, 83%, 38%)" offset="25%"></stop><stop stop-color="hsl(209, 78%, 25%)" offset="100%"></stop></linearGradient><linearGradient gradientTransform="rotate(337, 0.5, 0.5)" x1="50%" y1="0%" x2="50%" y2="100%" id="uuunion-grad3"><stop stop-color="hsl(205, 83%, 38%)" offset="0%"></stop><stop stop-color="hsl(209, 78%, 25%)" offset="75%"></stop></linearGradient></defs><path d="M-79.16 -80.55Q-64.49 -77.82 -49.82 -75.29 -35.15 -73.19 -20.48 -71.73 -5.81 -71.04 8.85 -71.18 23.52 -72.14 38.18 -73.83 52.85 -76.09 67.52 -78.72 82.19 -81.46 96.86 -84.07 111.53 -86.3 126.2 -87.94 140.87 -88.85 155.54 -88.93 170.21 -88.18 184.88 -86.67 199.55 -84.53 214.22 -81.98 228.88 -79.24 243.55 -76.58 258.22 -74.23 272.89 -72.41 287.56 -71.3 302.23 -71 316.9 -71.54 331.57 -72.86 346.24 -74.85 360.91 -77.31 375.58 -80.02 390.25 -82.73 404.91 -85.19 419.58 -87.16 434.25 -88.47 448.92 -88.99 463.59 -88.67 478.26 -87.55 492.93 -85.72 507.6 -83.36 522.27 -80.69 536.94 -77.95 551.61 -75.41 566.28 -73.29 580.95 -71.79 595.61 -71.06 610.28 -71.15 624.95 -72.07 639.62 -73.73 654.29 -75.97 668.96 -78.58 683.63 -81.33 698.3 -83.95 712.97 -86.2 727.64 -87.88 742.31 -88.82 756.98 -88.94 771.65 -88.23 786.31 -86.76 800.98 -84.65 815.65 -82.12 830.32 -79.38 844.99 -76.7 859.66 -74.33 858.1 -59.21 859.43 -44.1 863.49 -28.98 869.73 -13.86 877.33 1.25 885.28 16.36 892.54 31.48 898.13 46.6 901.32 61.72 901.69 76.84 899.19 91.95 894.15 107.07 887.23 122.19 879.36 137.31 871.57 152.43 864.89 167.54 860.22 182.66 858.16 197.78 858.99 212.9 862.61 228.02 868.52 243.13 875.95 258.25 883.92 273.37 891.37 288.49 897.31 303.61 900.96 318.72 901.84 333.84 899.82 348.96 895.18 364.08 888.53 379.2 880.75 394.31 872.87 409.43 865.93 424.55 860.86 439.67 858.32 454.79 858.64 469.9 861.79 485.02 867.36 500.14 874.59 515.26 882.54 530.38 890.15 545.49 896.42 560.61 900.52 575.73 901.89 590.85 900.37 605.97 896.15 621.08 889.8 636.2 882.14 651.32 874.2 666.44 867.03 681.56 861.57 696.67 858.56 711.79 858.38 726.91 861.06 742.03 866.24 757.14 873.25 772.26 881.15 787.38 888.9 802.5 895.47 817.62 899.99 832.73 901.86 847.85 900.84 862.97 897.06 878.09 891.02 893.21 875.84 887.67 860.66 881.43 845.49 875.05 830.31 869.13 815.13 864.22 799.95 860.77 784.77 859.12 769.59 859.4 754.41 861.6 739.23 865.52 724.05 870.77 708.87 876.89 693.69 883.29 678.51 889.39 663.33 894.61 648.15 898.48 632.97 900.62 617.79 900.85 602.61 899.14 587.44 895.65 572.26 890.7 557.08 884.76 541.9 878.38 526.72 872.14 511.54 866.64 496.36 862.37 481.18 859.75 466 859.01 450.82 860.22 435.64 863.27 420.46 867.87 405.28 873.6 390.1 879.93 374.92 886.26 359.74 892.01 344.56 896.64 329.39 899.73 314.21 900.98 299.03 900.27 283.85 897.69 268.67 893.46 253.49 887.97 238.31 881.75 223.13 875.36 207.95 869.4 192.77 864.43 177.59 860.91 162.41 859.16 147.23 859.34 132.05 861.45 116.87 865.28 101.69 870.48 86.52 876.57 71.34 882.97 56.16 889.1 40.98 894.38 25.8 898.32 10.62 900.56 -4.55 900.89 -19.73 899.27 -34.91 895.86 -50.09 890.98 -65.27 885.07 -80.45 878.7 -80.7 863.71 -80.85 848.72 -80.89 833.73 -80.82 818.74 -80.63 803.75 -80.36 788.77 -80.04 773.78 -79.72 758.79 -79.43 743.8 -79.22 728.81 -79.11 713.82 -79.11 698.84 -79.24 683.85 -79.46 668.86 -79.76 653.87 -80.08 638.88 -80.4 623.89 -80.66 608.91 -80.83 593.92 -80.89 578.93 -80.84 563.94 -80.67 548.95 -80.41 533.96 -80.1 518.98 -79.77 503.99 -79.48 489 -79.25 474.01 -79.12 459.02 -79.1 444.03 -79.21 429.04 -79.42 414.06 -79.7 399.07 -80.03 384.08 -80.35 369.09 -80.62 354.1 -80.81 339.11 -80.89 324.13 -80.86 309.14 -80.71 294.15 -80.46 279.16 -80.16 264.17 -79.83 249.18 -79.52 234.2 -79.28 219.21 -79.13 204.22 -79.1 189.23 -79.18 174.24 -79.37 159.25 -79.65 144.26 -79.97 129.28 -80.29 114.29 -80.58 99.3 -80.78 84.31 -80.89 69.32 -80.87 54.33 -80.74 39.35 -80.51 24.36 -80.21 9.37 -79.89 -5.61 -79.57 -20.6 -79.32 -35.59 -79.15 -50.57 -79.1 -65.56 -79.16 -80.55" fill="url(#uuunion-grad)"></path><path d="M-79.16 -80.55Q-79.1 -65.56 -79.15 -50.57 -79.32 -35.59 -79.57 -20.6 -79.89 -5.61 -80.21 9.37 -80.51 24.36 -80.74 39.35 -80.87 54.33 -80.89 69.32 -80.78 84.31 -80.58 99.3 -80.29 114.29 -79.97 129.28 -79.65 144.26 -79.37 159.25 -79.18 174.24 -79.1 189.23 -79.13 204.22 -79.28 219.21 -79.52 234.2 -79.83 249.18 -80.16 264.17 -80.46 279.16 -80.71 294.15 -80.86 309.14 -80.89 324.13 -80.81 339.11 -80.62 354.1 -80.35 369.09 -80.03 384.08 -79.7 399.07 -69.78 402.12 -59.86 405.09 -49.93 407.84 -40.01 410.27 -30.09 412.27 -20.17 413.76 -1.57 414.91 1.64 414.98 14.21 408.02 26.88 400.15 39.63 391.49 52.47 382.19 65.38 372.47 78.35 362.54 91.36 352.65 104.39 343.03 117.41 333.9 130.4 325.42 143.34 317.74 156.2 310.95 168.96 305.06 181.6 300.04 194.11 295.81 206.46 292.23 218.65 289.11 230.67 286.25 242.53 283.44 254.23 280.44 265.78 277.06 277.2 273.11 288.51 268.46 299.73 263 310.9 256.7 322.05 249.57 333.22 241.68 344.44 233.13 355.76 224.1 367.2 214.75 378.8 205.3 390.61 195.95 402.64 186.9 414.92 178.32 427.46 170.35 440.29 163.11 453.4 156.64 466.79 150.95 480.45 145.99 494.37 141.67 508.51 137.86 522.84 134.4 537.32 131.09 551.92 127.76 566.57 124.21 581.23 120.27 595.85 115.81 610.35 110.7 624.7 104.9 638.83 98.37 652.7 91.15 666.27 83.31 679.48 74.96 692.32 66.25 704.77 57.32 716.8 48.37 728.41 39.56 739.62 31.06 750.44 23 760.89 15.49 771.03 8.62 780.88 2.4 790.52 -3.16 800 -8.14 791.72 -25.46 784.92 -42.79 780.83 -60.11 780.18 -77.43 783.09 -94.75 789.02 -112.07 796.93 -129.39 805.39 -146.72 790.39 -147.84 775.38 -148.24 760.38 -147.89 745.38 -146.81 730.38 -145.11 715.38 -142.93 700.38 -140.49 685.37 -138 670.37 -135.69 655.37 -133.78 640.37 -132.44 625.37 -131.79 610.37 -131.9 595.36 -132.75 580.36 -134.26 565.36 -136.31 550.36 -138.69 535.36 -141.19 520.36 -143.58 505.35 -145.64 490.35 -147.18 475.35 -148.07 460.35 -148.21 445.35 -147.6 430.35 -146.29 415.34 -144.4 400.34 -142.11 385.34 -139.62 370.34 -137.17 355.34 -134.98 340.34 -133.25 325.33 -132.13 310.33 -131.75 295.33 -132.11 280.33 -133.2 265.33 -134.92 250.32 -137.1 235.32 -139.55 220.32 -142.04 205.32 -144.34 190.32 -146.24 175.32 -147.57 160.31 -148.2 145.31 -148.08 130.31 -147.22 115.31 -145.69 100.31 -143.64 85.31 -141.26 70.3 -138.76 55.3 -136.37 40.3 -134.32 25.3 -132.79 10.3 -131.92 -4.69 -131.79 -19.7 -132.41 -34.7 -133.73 -49.7 -135.63 -64.7 -137.93 -79.7 -140.42 -94.7 -142.86 -109.71 -145.05 -124.71 -146.77 -134.02 -134.49 -116.21 -116.28 -106.81 -107.62 -97.51 -98.74 -88.3 -89.7 -79.16 -80.55" fill="url(#uuunion-grad2)" filter="url(#uuunion-blur)"></path><path d="M793.49 387.77Q803.41 389.79 813.33 392.23 823.26 394.99 833.18 397.96 843.1 401.02 853.03 404.03 862.95 406.87 872.87 409.43 865.93 424.55 860.86 439.67 858.32 454.79 858.64 469.9 861.79 485.02 867.36 500.14 874.59 515.26 882.54 530.38 890.15 545.49 896.42 560.61 900.52 575.73 901.89 590.85 900.37 605.97 896.15 621.08 889.8 636.2 882.14 651.32 874.2 666.44 867.03 681.56 861.57 696.67 858.56 711.79 858.38 726.91 861.06 742.03 866.24 757.14 873.25 772.26 881.15 787.38 888.9 802.5 895.47 817.62 899.99 832.73 901.86 847.85 900.84 862.97 897.06 878.09 891.02 893.21 877.09 888.16 863.16 882.48 849.23 876.6 835.3 870.99 821.37 866.08 807.44 862.27 793.51 859.84 779.58 859 765.65 859.8 751.72 862.18 737.79 865.96 723.86 870.84 709.93 876.44 696 882.32 682.07 888.02 668.14 893.08 654.21 897.12 640.28 899.82 626.35 900.96 612.42 900.46 598.49 898.36 584.56 894.81 570.63 890.1 556.7 884.6 542.77 878.74 528.84 872.98 514.91 867.77 500.98 863.51 487.05 860.55 473.12 859.11 459.19 859.31 445.25 861.14 431.32 864.44 417.39 868.96 403.46 874.34 389.53 880.17 375.6 885.98 361.67 891.33 347.74 895.79 333.81 899.01 319.88 900.73 305.95 900.84 292.02 899.3 278.09 896.26 264.16 891.94 250.23 886.68 236.3 880.9 222.37 875.05 208.44 869.58 194.51 864.93 180.58 861.47 166.65 859.45 152.72 859.05 138.79 860.29 124.86 863.07 110.93 867.18 97 872.3 83.07 878.02 69.14 883.89 55.21 889.46 41.28 894.28 27.35 897.99 6.55 895.58 -0.17 880.74 -0.07 870.62 -0.02 860.49 -0.03 850.37 -0.1 840.24 -0.06 825.05 0.61 820 13.13 813.02 25.55 804.81 37.88 795.5 50.11 785.29 62.25 774.45 74.3 763.28 86.28 752.1 98.21 741.22 110.1 730.95 121.98 721.53 133.87 713.17 145.8 705.99 157.79 700.05 169.86 695.31 182.05 691.66 194.37 688.94 206.83 686.89 219.46 685.26 232.26 683.73 245.24 682 258.39 679.78 271.72 676.81 285.2 672.9 298.82 667.89 312.55 661.71 326.38 654.38 340.26 645.96 354.16 636.62 368.05 626.55 381.88 616.02 395.62 605.29 409.22 594.67 422.66 584.43 435.88 574.82 448.88 566.06 461.61 558.3 474.06 551.64 486.22 546.08 498.08 541.57 509.65 537.99 520.94 535.16 531.96 532.85 542.74 530.81 553.32 528.75 563.73 526.42 574.02 523.55 584.25 519.93 594.46 515.41 604.72 509.88 615.08 503.3 625.6 495.71 636.33 487.2 647.34 477.92 658.65 468.08 670.32 457.92 682.37 447.68 694.84 437.64 707.73 428.03 721.05 419.06 734.79 410.9 748.94 403.67 763.46 397.43 785.91 389.96 793.49 387.77" fill="url(#uuunion-grad3)" filter="url(#uuunion-blur2)"></path></svg>